<?xml version="1.0" encoding="iso-8859-1"?>
<!-- Generator: Adobe Illustrator 19.0.0, SVG Export Plug-In . SVG Version: 6.00 Build 0)  -->
<svg version="1.1" id="Capa_1" xmlns="http://www.w3.org/2000/svg" xmlns:xlink="http://www.w3.org/1999/xlink" x="0px" y="0px"
	 viewBox="0 0 512 512" style="enable-background:new 0 0 512 512;" xml:space="preserve">
<g>
	<path style="fill:#527F72;" d="M121.613,321.085c-4.793,0-8.678-3.885-8.678-8.678v-43.39c0-4.793,3.885-8.678,8.678-8.678
		c4.793,0,8.678,3.885,8.678,8.678v43.39C130.291,317.199,126.406,321.085,121.613,321.085z"/>
	<path style="fill:#E57E25;" d="M217.071,321.085H26.155c-4.793,0-8.678,3.885-8.678,8.678v43.39c0,4.79-4.79,8.678,0,8.678
		l32.976,123.73c1.016,3.803,4.464,6.446,8.4,6.439h125.518c3.93-0.001,7.369-2.642,8.383-6.439l32.994-123.73
		c4.79,0,0-3.888,0-8.678v-43.39C225.749,324.97,221.863,321.085,217.071,321.085z"/>
	<path style="fill:#F29C1F;" d="M17.477,312.407h208.271c4.793,0,8.678,3.885,8.678,8.678v52.068c0,4.793-3.885,8.678-8.678,8.678
		H17.477c-4.793,0-8.678-3.885-8.678-8.678v-52.068C8.799,316.292,12.685,312.407,17.477,312.407z"/>
	<g>
		<path style="fill:#71C285;" d="M121.492,269.017c0,0,8.678-86.78-121.492-86.78C0,182.237,8.678,295.051,121.492,269.017z"/>
		<path style="fill:#71C285;" d="M121.613,269.017c0,0-8.678-86.78,121.492-86.78C243.105,182.237,234.427,295.051,121.613,269.017z
			"/>
	</g>
	<g>
		<path style="fill:#F29C1F;" d="M76.835,451.254c0.845,4.693-2.256,9.188-6.942,10.066c-0.515,0.101-1.037,0.159-1.562,0.174
			c-4.194,0.027-7.791-2.983-8.504-7.116l-8.218-45.056c-0.458-2.508,0.221-5.089,1.853-7.047c1.633-1.958,4.05-3.089,6.599-3.089
			h0.069c4.147-0.001,7.703,2.96,8.452,7.038L76.835,451.254z"/>
		<circle style="fill:#F29C1F;" cx="74.969" cy="484.343" r="8.678"/>
		<circle style="fill:#F29C1F;" cx="381.831" cy="130.169" r="78.102"/>
	</g>
	<g>
		<path style="fill:#F0C419;" d="M503.322,121.492h-8.678c-4.793,0-8.678,3.885-8.678,8.678c0,4.793,3.885,8.678,8.678,8.678h8.678
			c4.793,0,8.678-3.885,8.678-8.678C512,125.377,508.115,121.492,503.322,121.492z"/>
		<path style="fill:#F0C419;" d="M479.536,82.441c1.524,0.003,3.021-0.398,4.339-1.163l7.524-4.339
			c4.115-2.413,5.512-7.694,3.126-11.825s-7.658-5.563-11.804-3.205l-7.524,4.339c-3.401,1.964-5.059,5.967-4.043,9.761
			C472.17,79.802,475.608,82.441,479.536,82.441z"/>
		<path style="fill:#F0C419;" d="M446.915,17.443c-4.15-2.396-9.458-0.974-11.854,3.176l-4.339,7.506
			c-1.575,2.686-1.59,6.011-0.039,8.711c1.551,2.7,4.43,4.363,7.544,4.356c3.114-0.007,5.986-1.682,7.525-4.389l4.339-7.506
			C452.488,25.146,451.066,19.839,446.915,17.443z"/>
		<path style="fill:#F0C419;" d="M381.831,0c-4.793,0-8.678,3.885-8.678,8.678v8.678c0,4.793,3.885,8.678,8.678,8.678
			c4.793,0,8.678-3.885,8.678-8.678V8.678C390.508,3.885,386.623,0,381.831,0z"/>
		<path style="fill:#F0C419;" d="M328.6,20.619c-1.539-2.707-4.411-4.382-7.525-4.389c-3.114-0.007-5.993,1.655-7.544,4.356
			s-1.536,6.025,0.039,8.711l4.339,7.506c1.539,2.707,4.411,4.382,7.525,4.389c3.114,0.007,5.993-1.655,7.544-4.356
			c1.551-2.7,1.536-6.025-0.039-8.711L328.6,20.619z"/>
		<path style="fill:#F0C419;" d="M288.473,66.248l-7.524-4.339c-4.147-2.358-9.419-0.926-11.804,3.205s-0.989,9.413,3.126,11.825
			l7.524,4.339c1.318,0.765,2.815,1.166,4.339,1.163c3.928,0,7.365-2.638,8.382-6.432C293.532,72.215,291.874,68.212,288.473,66.248
			z"/>
		<path style="fill:#F0C419;" d="M277.695,130.169c0-4.793-3.885-8.678-8.678-8.678h-8.678c-4.793,0-8.678,3.885-8.678,8.678
			c0,4.793,3.885,8.678,8.678,8.678h8.678C273.81,138.847,277.695,134.962,277.695,130.169z"/>
		<path style="fill:#F0C419;" d="M279.795,179.061l-7.524,4.339c-2.707,1.539-4.382,4.411-4.389,7.525s1.655,5.993,4.356,7.544
			c2.7,1.551,6.025,1.536,8.711-0.039l7.524-4.339c4.115-2.413,5.512-7.694,3.126-11.825
			C289.214,178.135,283.942,176.703,279.795,179.061z"/>
		<path style="fill:#F0C419;" d="M329.763,220.36c-4.15-2.396-9.458-0.974-11.854,3.176l-4.339,7.506
			c-1.575,2.686-1.59,6.011-0.039,8.711s4.43,4.363,7.544,4.356c3.114-0.007,5.986-1.682,7.525-4.389l4.339-7.506
			C335.335,228.063,333.913,222.756,329.763,220.36z"/>
		<path style="fill:#F0C419;" d="M381.831,234.305c-4.793,0-8.678,3.885-8.678,8.678v8.678c0,4.793,3.885,8.678,8.678,8.678
			c4.793,0,8.678-3.885,8.678-8.678v-8.678C390.508,238.19,386.623,234.305,381.831,234.305z"/>
		<path style="fill:#F0C419;" d="M445.752,223.536c-1.539-2.707-4.411-4.382-7.525-4.389s-5.993,1.655-7.544,4.356
			c-1.551,2.7-1.536,6.025,0.039,8.711l4.339,7.506c2.413,4.115,7.694,5.512,11.825,3.126s5.563-7.658,3.205-11.804L445.752,223.536
			z"/>
		<path style="fill:#F0C419;" d="M491.39,183.4l-7.524-4.339c-2.686-1.575-6.011-1.59-8.711-0.039
			c-2.7,1.551-4.363,4.43-4.356,7.544c0.007,3.114,1.682,5.986,4.389,7.525l7.524,4.339c1.318,0.765,2.815,1.166,4.339,1.163
			c3.928,0,7.365-2.638,8.382-6.432C496.449,189.368,494.791,185.364,491.39,183.4z"/>
	</g>
</g>
<g>
</g>
<g>
</g>
<g>
</g>
<g>
</g>
<g>
</g>
<g>
</g>
<g>
</g>
<g>
</g>
<g>
</g>
<g>
</g>
<g>
</g>
<g>
</g>
<g>
</g>
<g>
</g>
<g>
</g>
</svg>
